Coordinates
version=1
nRows=27
nColumns=34
inDegrees=no

Units are S.I. units (second, meters, Newtons, ...)
If the header above contains a line with 'inDegrees', this indicates whether rotational values are in degrees (yes) or radians (no).

endheader
time	pelvis_tilt	pelvis_list	pelvis_rotation	pelvis_tx	pelvis_ty	pelvis_tz	hip_flexion_r	hip_adduction_r	hip_rotation_r	knee_angle_r	ankle_angle_r	subtalar_angle_r	mtp_angle_r	hip_flexion_l	hip_adduction_l	hip_rotation_l	knee_angle_l	ankle_angle_l	subtalar_angle_l	mtp_angle_l	lumbar_extension	lumbar_bending	lumbar_rotation	arm_flex_r	arm_add_r	arm_rot_r	elbow_flex_r	pro_sup_r	arm_flex_l	arm_add_l	arm_rot_l	elbow_flex_l	pro_sup_l
1.14	0.0780019	-0.00452524	-0.0157489	1.19447	1.14493	-0.221388	0.293116	0.00596406	-0.116107	0.131585	0.0822321	0.0907716	-0.053706	-0.258087	0.0512452	-0.174016	0.0399289	0.223985	0.104754	-0.0907003	-0.381412	0.0236879	-0.0281559	-0.185293	-0.167906	-0.257299	0.832982	2.11134	-0.0920187	-0.206081	-0.106783	0.899262	2.07706
1.15	0.0766804	-0.00667727	-0.0164255	1.20457	1.14348	-0.220827	0.289079	0.0125796	-0.125804	0.104625	0.0862987	0.112296	-0.0538249	-0.265601	0.0486325	-0.177981	0.0437107	0.232015	0.10912	-0.0906243	-0.381763	0.0277477	-0.0255219	-0.185093	-0.168645	-0.257818	0.831004	2.11126	-0.0903557	-0.204997	-0.106242	0.900115	2.07629
1.16	0.0756261	-0.00900516	-0.0170937	1.21483	1.1421	-0.220238	0.285681	0.0191725	-0.134773	0.0844221	0.0889146	0.127453	-0.0539438	-0.272977	0.0456933	-0.181929	0.048447	0.239656	0.113079	-0.0905483	-0.382151	0.032129	-0.0229263	-0.184847	-0.16942	-0.258464	0.828991	2.11118	-0.089008	-0.203632	-0.105918	0.900567	2.07555
1.17	0.0747819	-0.0114595	-0.0177043	1.22524	1.14078	-0.219632	0.283012	0.0255562	-0.142624	0.0710321	0.0900201	0.136177	-0.0540627	-0.280139	0.0424749	-0.18561	0.0541594	0.246781	0.116394	-0.0904723	-0.382512	0.0368015	-0.0204811	-0.184587	-0.170193	-0.259347	0.827028	2.1111	-0.0880477	-0.202008	-0.105802	0.900667	2.07482
1.18	0.0740922	-0.014004	-0.0182088	1.2358	1.13953	-0.219016	0.281097	0.0315888	-0.148982	0.0642288	0.0894777	0.138637	-0.0541815	-0.287025	0.039014	-0.188794	0.0608497	0.25324	0.118815	-0.0903965	-0.382785	0.0417515	-0.0182805	-0.184353	-0.170927	-0.260586	0.8252	2.11102	-0.0875303	-0.200149	-0.105856	0.900452	2.07408
1.19	0.0735133	-0.0166333	-0.0185687	1.24654	1.13836	-0.218391	0.27991	0.0371817	-0.153529	0.0635279	0.0870933	0.135213	-0.0543003	-0.293573	0.035336	-0.191297	0.0685115	0.258859	0.120095	-0.0903207	-0.382919	0.0469782	-0.0163913	-0.184185	-0.171597	-0.262281	0.823573	2.11093	-0.087489	-0.198076	-0.106023	0.899936	2.07332
1.2	0.073004	-0.0193469	-0.0187616	1.25743	1.13729	-0.217763	0.279388	0.0423089	-0.156052	0.0682367	0.0826669	0.126486	-0.0544191	-0.299725	0.0314485	-0.193003	0.0771486	0.263439	0.119996	-0.0902449	-0.382874	0.0524972	-0.0148449	-0.184124	-0.172199	-0.264491	0.822187	2.11085	-0.087932	-0.195805	-0.106232	0.899107	2.07252
1.21	0.0725332	-0.0221532	-0.0187848	1.26849	1.13632	-0.217134	0.279446	0.0469947	-0.156484	0.0775196	0.0760621	0.113218	-0.0545379	-0.305415	0.0273458	-0.193879	0.0867959	0.266751	0.118304	-0.0901692	-0.382625	0.0583279	-0.0136385	-0.184195	-0.172748	-0.267221	0.821046	2.11077	-0.088844	-0.193349	-0.106408	0.897929	2.07171
1.22	0.0720819	-0.0250607	-0.0186552	1.2797	1.13546	-0.216504	0.279985	0.0512967	-0.154922	0.0904739	0.0672812	0.096331	-0.0546566	-0.31056	0.0230141	-0.193968	0.0975401	0.26854	0.114833	-0.0900936	-0.382166	0.0644817	-0.012742	-0.184414	-0.173284	-0.270408	0.820121	2.11069	-0.0901906	-0.190718	-0.106491	0.896349	2.07092
1.23	0.0716427	-0.0280674	-0.0184033	1.29106	1.13473	-0.215872	0.280896	0.055284	-0.151608	0.106205	0.0565266	0.0768542	-0.0547753	-0.315049	0.0184371	-0.193381	0.109539	0.26853	0.109436	-0.090018	-0.381509	0.0709477	-0.0121105	-0.184776	-0.173854	-0.273931	0.819352	2.11061	-0.0919261	-0.187918	-0.106442	0.894312	2.07024
1.24	0.0712155	-0.0311527	-0.0180638	1.30254	1.13413	-0.215232	0.28206	0.0590164	-0.146899	0.123889	0.0442349	0.0558514	-0.0548941	-0.318736	0.0136025	-0.192268	0.123032	0.266428	0.102013	-0.0899424	-0.380673	0.0776821	-0.0116995	-0.185266	-0.174508	-0.277628	0.818659	2.11053	-0.0940015	-0.184962	-0.106247	0.891773	2.06974
1.25	0.0707998	-0.0342733	-0.0176632	1.31413	1.13367	-0.214577	0.283351	0.0625294	-0.141208	0.142812	0.0310726	0.0343364	-0.0550127	-0.321424	0.00850606	-0.190784	0.138346	0.261935	0.092512	-0.0898669	-0.379682	0.0846027	-0.0114801	-0.185859	-0.175285	-0.28132	0.817961	2.11045	-0.0963716	-0.181865	-0.105921	0.888711	2.06951
1.26	0.0703881	-0.0373652	-0.0172075	1.32582	1.13336	-0.2139	0.284636	0.0658289	-0.134955	0.162382	0.0178888	0.0131917	-0.0551314	-0.32286	0.00315018	-0.18905	0.155886	0.254746	0.080919	-0.0897914	-0.378548	0.091593	-0.0114506	-0.186532	-0.176196	-0.284839	0.817192	2.11037	-0.0989979	-0.178657	-0.10549	0.885138	2.0696
1.27	0.0699624	-0.0403505	-0.0166712	1.33759	1.13322	-0.213192	0.285775	0.0688987	-0.128519	0.182118	0.0056276	-0.00689436	-0.0552501	-0.322733	-0.00246177	-0.187119	0.176113	0.244566	0.067254	-0.089716	-0.377262	0.0985171	-0.0116416	-0.187264	-0.177228	-0.288051	0.816312	2.11029	-0.101849	-0.175383	-0.104984	0.881096	2.06999
1.28	0.0694944	-0.0431485	-0.0159904	1.34942	1.13324	-0.212448	0.286623	0.0717153	-0.122214	0.201615	-0.0047876	-0.0254617	-0.0553687	-0.320686	-0.00833271	-0.184947	0.199514	0.231115	0.0515596	-0.0896406	-0.375791	0.10524	-0.0121141	-0.188047	-0.178338	-0.290866	0.815317	2.11021	-0.104893	-0.172101	-0.10442	0.876659	2.07064
1.29	0.0689453	-0.0456911	-0.015062	1.36129	1.13341	-0.211665	0.287037	0.0742643	-0.116284	0.220509	-0.0125775	-0.0422796	-0.0554874	-0.31634	-0.0144759	-0.182384	0.226555	0.214151	0.0338957	-0.0895652	-0.374077	0.111651	-0.0129495	-0.188883	-0.179461	-0.293247	0.814239	2.11013	-0.108098	-0.168884	-0.103792	0.871929	2.07144
1.3	0.0682698	-0.0479353	-0.0137507	1.37317	1.13374	-0.210846	0.286873	0.0765532	-0.110917	0.238456	-0.0172147	-0.057319	-0.055606	-0.309324	-0.0209133	-0.179188	0.257631	0.193488	0.014344	-0.0894899	-0.37205	0.117676	-0.0142351	-0.189787	-0.180524	-0.295208	0.81314	2.11005	-0.111419	-0.165812	-0.10307	0.867025	2.07227
1.31	0.0674247	-0.0498681	-0.0119041	1.38506	1.13422	-0.209995	0.286	0.0786152	-0.106262	0.255122	-0.0184946	-0.0707026	-0.0557246	-0.299323	-0.0276676	-0.175053	0.293009	0.169029	-0.00697912	-0.0894146	-0.36964	0.12329	-0.016046	-0.190779	-0.181453	-0.2968	0.812097	2.10997	-0.114799	-0.16297	-0.102201	0.862086	2.07302
1.32	0.0663783	-0.0515026	-0.00937463	1.39692	1.13482	-0.209121	0.284305	0.080504	-0.102449	0.270195	-0.0165541	-0.0826442	-0.0558432	-0.286117	-0.0347488	-0.169659	0.332782	0.1408	-0.0299007	-0.0893393	-0.366792	0.12851	-0.0184285	-0.191879	-0.182189	-0.2981	0.811195	2.10988	-0.118169	-0.160431	-0.101126	0.857255	2.07358
1.33	0.0651167	-0.0528775	-0.00604372	1.40873	1.13553	-0.208236	0.281705	0.0822807	-0.0996005	0.283419	-0.0118362	-0.0933863	-0.0559618	-0.269622	-0.0421364	-0.162731	0.376829	0.10898	-0.0541709	-0.0892641	-0.363482	0.133382	-0.0213853	-0.193105	-0.182695	-0.299191	0.810511	2.1098	-0.12145	-0.158255	-0.0997895	0.852677	2.07392
1.34	0.0636493	-0.0540516	-0.00184446	1.42046	1.13633	-0.20735	0.27815	0.0839966	-0.097823	0.294618	-0.0050083	-0.103147	-0.0560803	-0.24991	-0.0497654	-0.154089	0.424797	0.0739268	-0.0794526	-0.0891889	-0.359729	0.137957	-0.0248671	-0.194462	-0.182961	-0.300149	0.810104	2.10972	-0.12456	-0.156481	-0.0981586	0.848484	2.07407
1.35	0.0620187	-0.0550809	0.00322368	1.43212	1.1372	-0.206469	0.27363	0.0856861	-0.097194	0.303727	0.0031489	-0.11208	-0.0561989	-0.227223	-0.0575191	-0.143689	0.476108	0.0361972	-0.105329	-0.0891137	-0.355593	0.142274	-0.0287668	-0.195945	-0.183008	-0.301022	0.810008	2.10964	-0.127422	-0.15512	-0.0962322	0.844784	2.07412
1.36	0.0602964	-0.0560099	0.00908476	1.44366	1.13813	-0.2056	0.268166	0.0873581	-0.0977395	0.310798	0.0118588	-0.120255	-0.0563174	-0.201955	-0.0652329	-0.131646	0.529988	-0.00344424	-0.13132	-0.0890386	-0.351175	0.146345	-0.0329244	-0.19753	-0.182881	-0.301825	0.810224	2.10956	-0.129971	-0.154155	-0.094045	0.841646	2.07421
1.37	0.0585775	-0.0568602	0.0155868	1.45509	1.13909	-0.204744	0.261801	0.0889943	-0.0994159	0.315994	0.0204524	-0.12765	-0.0564359	-0.174633	-0.0727086	-0.118233	0.585514	-0.0440248	-0.156915	-0.0889635	-0.346616	0.150142	-0.0371374	-0.199182	-0.182646	-0.302542	0.810721	2.10948	-0.132163	-0.153542	-0.0916631	0.839098	2.0745
1.38	0.0569739	-0.0576223	0.0225117	1.4664	1.1401	-0.203896	0.254588	0.0905543	-0.1021	0.319561	0.0284396	-0.134168	-0.0565544	-0.14587	-0.0797359	-0.103864	0.641681	-0.084381	-0.181607	-0.0888884	-0.342076	0.153603	-0.041178	-0.200852	-0.182374	-0.303137	0.811433	2.1094	-0.133973	-0.153217	-0.0891742	0.837122	2.07513
1.39	0.0555995	-0.058255	0.0295977	1.47758	1.14113	-0.203052	0.246571	0.0919824	-0.105595	0.321785	0.0355423	-0.139659	-0.0566729	-0.116314	-0.0861143	-0.0890468	0.697467	-0.123203	-0.204935	-0.0888134	-0.337723	0.156637	-0.0448136	-0.202482	-0.182132	-0.303568	0.81227	2.10932	-0.135405	-0.153104	-0.0866736	0.83566	2.0762
1.4	0.0545574	-0.0586922	0.0365656	1.48865	1.1422	-0.202204	0.237783	0.0932149	-0.10965	0.322953	0.0416875	-0.143957	-0.0567914	-0.0865937	-0.0916741	-0.0743293	0.751897	-0.159117	-0.226524	-0.0887383	-0.333714	0.159134	-0.047832	-0.204012	-0.181975	-0.303804	0.813129	2.10924	-0.136482	-0.153123	-0.0842503	0.834626	2.07775
